<svg width="28" height="29" viewBox="0 0 28 29" fill="none" xmlns="http://www.w3.org/2000/svg">
    <g clip-path="url(#clip0_429_1782)">
        <path d="M4.6665 8.6665H23.3332" stroke="#C91C1C" stroke-width="1.25" stroke-linecap="round" stroke-linejoin="round"/>
        <path d="M11.6665 13.3335V20.3335" stroke="#C91C1C" stroke-width="1.25" stroke-linecap="round" stroke-linejoin="round"/>
        <path d="M16.3335 13.3335V20.3335" stroke="#C91C1C" stroke-width="1.25" stroke-linecap="round" stroke-linejoin="round"/>
        <path d="M5.8335 8.6665L7.00016 22.6665C7.00016 23.2853 7.246 23.8788 7.68358 24.3164C8.12116 24.754 8.71466 24.9998 9.3335 24.9998H18.6668C19.2857 24.9998 19.8792 24.754 20.3167 24.3164C20.7543 23.8788 21.0002 23.2853 21.0002 22.6665L22.1668 8.6665" stroke="#C91C1C" stroke-width="1.25" stroke-linecap="round" stroke-linejoin="round"/>
        <path d="M10.5 8.66667V5.16667C10.5 4.85725 10.6229 4.5605 10.8417 4.34171C11.0605 4.12292 11.3572 4 11.6667 4H16.3333C16.6428 4 16.9395 4.12292 17.1583 4.34171C17.3771 4.5605 17.5 4.85725 17.5 5.16667V8.66667" stroke="#C91C1C" stroke-width="1.25" stroke-linecap="round" stroke-linejoin="round"/>
    </g>
    <defs>
        <clipPath id="clip0_429_1782">
            <rect width="28" height="28" fill="white" transform="translate(0 0.5)"/>
        </clipPath>
    </defs>
</svg>
