<svg width="40" height="40" viewBox="0 0 40 40" fill="none" xmlns="http://www.w3.org/2000/svg">
    <g clip-path="url(#clip0_383_2115)">
        <path d="M20 35C21.9698 35 23.9204 34.612 25.7403 33.8582C27.5601 33.1044 29.2137 31.9995 30.6066 30.6066C31.9995 29.2137 33.1044 27.5601 33.8582 25.7403C34.612 23.9204 35 21.9698 35 20C35 18.0302 34.612 16.0796 33.8582 14.2597C33.1044 12.4399 31.9995 10.7863 30.6066 9.3934C29.2137 8.00052 27.5601 6.89563 25.7403 6.14181C23.9204 5.38799 21.9698 5 20 5C16.0218 5 12.2064 6.58035 9.3934 9.3934C6.58035 12.2064 5 16.0218 5 20C5 23.9782 6.58035 27.7936 9.3934 30.6066C12.2064 33.4196 16.0218 35 20 35Z" stroke="#3B5345" stroke-width="1.25" stroke-linecap="round" stroke-linejoin="round"/>
        <path d="M13.3333 20L19.9999 26.6667" stroke="#3B5345" stroke-width="1.25" stroke-linecap="round" stroke-linejoin="round"/>
        <path d="M13.3333 20H26.6666" stroke="#3B5345" stroke-width="1.25" stroke-linecap="round" stroke-linejoin="round"/>
        <path d="M19.9999 13.3334L13.3333 20" stroke="#3B5345" stroke-width="1.25" stroke-linecap="round" stroke-linejoin="round"/>
    </g>
    <defs>
        <clipPath id="clip0_383_2115">
            <rect width="40" height="40" fill="white"/>
        </clipPath>
    </defs>
</svg>
