<svg width="32" height="32" viewBox="0 0 32 32" fill="none" xmlns="http://www.w3.org/2000/svg">
    <path d="M24.0003 2.14385C26.4136 3.53724 28.4211 5.53674 29.8241 7.94441C31.2271 10.3521 31.977 13.0844 31.9995 15.871C32.022 18.6575 31.3163 21.4016 29.9524 23.8316C28.5885 26.2617 26.6135 28.2933 24.2231 29.7255C21.8327 31.1577 19.1096 31.9407 16.3236 31.9971C13.5375 32.0535 10.785 31.3813 8.33859 30.047C5.89217 28.7127 3.83664 26.7626 2.3755 24.3898C0.914351 22.0169 0.0982561 19.3036 0.00800028 16.5184L0 16L0.00800028 15.4816C0.0976063 12.7184 0.901687 10.0255 2.34185 7.66551C3.78202 5.30553 5.80912 3.35899 8.22553 2.01566C10.6419 0.672337 13.3652 -0.0219375 16.1298 0.0005284C18.8944 0.0229943 21.606 0.761434 24.0003 2.14385ZM21.9315 11.6688C21.656 11.3933 21.2894 11.2278 20.9005 11.2033C20.5117 11.1789 20.1273 11.2972 19.8194 11.536L19.669 11.6688L14.4002 16.936L12.3314 14.8688L12.181 14.736C11.8731 14.4974 11.4887 14.3792 11.1 14.4038C10.7112 14.4283 10.3448 14.5938 10.0693 14.8692C9.79391 15.1447 9.62841 15.5111 9.60388 15.8999C9.57936 16.2886 9.69749 16.673 9.93612 16.9808L10.0689 17.1312L13.269 20.3313L13.4194 20.4641C13.7 20.6818 14.045 20.8 14.4002 20.8C14.7553 20.8 15.1004 20.6818 15.381 20.4641L15.5314 20.3313L21.9315 13.9312L22.0643 13.7808C22.3031 13.4729 22.4213 13.0885 22.3969 12.6997C22.3724 12.3108 22.207 11.9443 21.9315 11.6688Z" fill="#0EAC50"/>
</svg>
