<svg width="20" height="20" viewBox="0 0 20 20" fill="none" xmlns="http://www.w3.org/2000/svg">
    <g clip-path="url(#clip0_732_1397)">
        <path d="M10 4.99992C10 5.44195 10.1756 5.86587 10.4882 6.17843C10.8007 6.49099 11.2246 6.66659 11.6667 6.66659C12.1087 6.66659 12.5326 6.49099 12.8452 6.17843C13.1577 5.86587 13.3333 5.44195 13.3333 4.99992C13.3333 4.55789 13.1577 4.13397 12.8452 3.82141C12.5326 3.50885 12.1087 3.33325 11.6667 3.33325C11.2246 3.33325 10.8007 3.50885 10.4882 3.82141C10.1756 4.13397 10 4.55789 10 4.99992Z" stroke="white" stroke-width="1.25" stroke-linecap="round" stroke-linejoin="round"/>
        <path d="M3.3335 5H10.0002" stroke="white" stroke-width="1.25" stroke-linecap="round" stroke-linejoin="round"/>
        <path d="M13.3335 5H16.6668" stroke="white" stroke-width="1.25" stroke-linecap="round" stroke-linejoin="round"/>
        <path d="M5 9.99992C5 10.4419 5.17559 10.8659 5.48816 11.1784C5.80072 11.491 6.22464 11.6666 6.66667 11.6666C7.10869 11.6666 7.53262 11.491 7.84518 11.1784C8.15774 10.8659 8.33333 10.4419 8.33333 9.99992C8.33333 9.55789 8.15774 9.13397 7.84518 8.82141C7.53262 8.50885 7.10869 8.33325 6.66667 8.33325C6.22464 8.33325 5.80072 8.50885 5.48816 8.82141C5.17559 9.13397 5 9.55789 5 9.99992Z" stroke="white" stroke-width="1.25" stroke-linecap="round" stroke-linejoin="round"/>
        <path d="M3.3335 10H5.00016" stroke="white" stroke-width="1.25" stroke-linecap="round" stroke-linejoin="round"/>
        <path d="M8.3335 10H16.6668" stroke="white" stroke-width="1.25" stroke-linecap="round" stroke-linejoin="round"/>
        <path d="M12.5 14.9999C12.5 15.4419 12.6756 15.8659 12.9882 16.1784C13.3007 16.491 13.7246 16.6666 14.1667 16.6666C14.6087 16.6666 15.0326 16.491 15.3452 16.1784C15.6577 15.8659 15.8333 15.4419 15.8333 14.9999C15.8333 14.5579 15.6577 14.134 15.3452 13.8214C15.0326 13.5088 14.6087 13.3333 14.1667 13.3333C13.7246 13.3333 13.3007 13.5088 12.9882 13.8214C12.6756 14.134 12.5 14.5579 12.5 14.9999Z" stroke="white" stroke-width="1.25" stroke-linecap="round" stroke-linejoin="round"/>
        <path d="M3.3335 15H12.5002" stroke="white" stroke-width="1.25" stroke-linecap="round" stroke-linejoin="round"/>
        <path d="M15.8335 15H16.6668" stroke="white" stroke-width="1.25" stroke-linecap="round" stroke-linejoin="round"/>
    </g>
    <defs>
        <clipPath id="clip0_732_1397">
            <rect width="20" height="20" fill="white"/>
        </clipPath>
    </defs>
</svg>
