<svg width="132" height="90" viewBox="0 0 132 90" fill="none" xmlns="http://www.w3.org/2000/svg">
    <path d="M0.5 8C0.5 3.58172 4.08172 0 8.5 0H123.5C127.918 0 131.5 3.58172 131.5 8V82C131.5 86.4183 127.918 90 123.5 90H8.5C4.08172 90 0.5 86.4183 0.5 82V8Z" fill="#44594A"/>
    <path d="M46.7402 30.82V50.18L50.7002 54.5H42.5402L46.3802 50.38L28.9802 29.46V50.18L32.9402 54.5H24.6602L28.6202 50.18V28.98L26.5402 26.5H33.3802L46.3802 42.34V30.82L42.4202 26.5H50.7002L46.7402 30.82ZM50.262 47.7C50.262 43.7 53.502 40.74 57.382 40.74C59.902 40.74 60.702 41.5 61.502 42.26C60.782 41.22 58.902 39.02 55.862 39.02H52.862C54.382 36.26 58.102 34.3 61.702 34.3C65.302 34.3 68.662 35.86 68.662 39.78V52.06L70.822 54.5H63.462V49.62C62.222 53.14 59.662 54.62 56.942 54.62C53.182 54.62 50.262 51.58 50.262 47.7ZM58.022 39.06C59.182 39.5 62.222 41.02 63.462 45.78V37.82C63.462 35.78 62.822 34.78 61.582 34.78C59.622 34.78 58.502 36.98 58.022 39.06ZM55.062 45.58C55.062 48.74 57.382 52.26 60.062 52.26C62.342 52.26 63.382 49.94 63.382 47.74C63.382 44.86 61.302 41.14 58.382 41.14C56.262 41.14 55.062 43.3 55.062 45.58ZM71.3948 47.7C71.3948 43.7 74.6348 40.74 78.5148 40.74C81.0348 40.74 81.8348 41.5 82.6348 42.26C81.9148 41.22 80.0348 39.02 76.9948 39.02H73.9948C75.5148 36.26 79.2348 34.3 82.8348 34.3C86.4348 34.3 89.7948 35.86 89.7948 39.78V52.06L91.9548 54.5H84.5948V49.62C83.3548 53.14 80.7948 54.62 78.0748 54.62C74.3148 54.62 71.3948 51.58 71.3948 47.7ZM79.1548 39.06C80.3148 39.5 83.3548 41.02 84.5948 45.78V37.82C84.5948 35.78 83.9548 34.78 82.7148 34.78C80.7548 34.78 79.6348 36.98 79.1548 39.06ZM76.1948 45.58C76.1948 48.74 78.5148 52.26 81.1948 52.26C83.4748 52.26 84.5148 49.94 84.5148 47.74C84.5148 44.86 82.4348 41.14 79.5148 41.14C77.3948 41.14 76.1948 43.3 76.1948 45.58ZM107.252 39.14L104.692 34.5H111.492L107.612 39.18L103.212 50.66V53.86H101.732C99.4517 58.74 96.6517 62.86 92.6917 62.86C90.2117 62.86 88.3317 61.3 88.3317 59.26C88.3317 57.42 89.8117 55.78 92.4917 55.18L99.0917 53.7L92.1317 36.9L90.0517 34.5H99.7717L97.6517 36.9L103.012 50.3L107.252 39.14ZM95.4117 54.86C92.6917 55.5 92.2517 56.46 92.2517 57.06C92.2517 58.02 93.2117 58.34 94.0517 58.34C96.7317 58.34 99.7717 56.26 101.412 53.86H99.5717L95.4117 54.86ZM57.4544 71.5H56.3064V61.714H57.4544V71.5ZM65.5134 70.604C65.5834 70.534 65.5974 70.52 65.6254 70.52C65.6674 70.52 65.7094 70.562 65.7094 70.632C65.7094 70.982 64.7574 71.542 64.3654 71.542C61.7614 71.542 61.7474 67.02 59.9974 67.02V71.5H58.8494V61.714H61.3694C63.4134 61.714 64.5194 63.296 64.5194 64.724C64.5194 65.928 63.7494 67.02 62.1254 67.02H60.7954C62.6434 67.804 63.7774 70.884 64.9254 70.884C65.1214 70.884 65.3174 70.8 65.5134 70.604ZM61.3694 61.896H60.3754C60.1374 61.896 59.9974 62.148 59.9974 62.498V66.838H61.6774C62.7834 66.838 63.3714 65.662 63.3714 64.458C63.3714 63.198 62.7274 61.896 61.3694 61.896ZM72.808 71.5H71.66L70.904 68.966C70.862 70.646 69.476 71.5 68.174 71.5C66.984 71.5 65.85 70.8 65.85 69.498C65.85 67.314 69.028 64.696 69.028 62.806C68.832 62.316 68.636 62.148 68.426 62.148C68.3 62.148 68.174 62.204 68.118 62.246C68.076 62.274 68.02 62.288 67.992 62.288C67.936 62.288 67.922 62.26 67.922 62.232V62.204C68.188 61.854 68.524 61.658 68.874 61.658C69.42 61.658 70.008 62.148 70.372 63.366L72.808 71.5ZM66.928 69.26C66.928 70.366 67.726 70.912 68.58 70.912C69.602 70.912 70.708 70.156 70.708 68.756C70.708 68.434 70.652 68.126 70.554 67.776L69.224 63.366C69.21 63.31 69.182 63.254 69.168 63.212C68.888 64.92 66.928 66.95 66.928 69.26ZM85.3562 72.746C85.4542 72.69 85.4682 72.676 85.4822 72.676C85.5382 72.676 85.5942 72.718 85.5942 72.774C85.5942 72.802 85.5802 72.83 85.5382 72.858C84.1662 73.642 83.1022 73.936 82.2482 73.936C79.7842 73.936 78.7762 71.542 76.4802 71.542H76.3122C74.0302 71.542 72.8822 69.008 72.8822 66.586C72.8822 64.122 74.0722 61.672 76.4522 61.672C78.8462 61.672 80.0362 64.122 80.0362 66.586C80.0362 68.784 79.0982 70.982 77.2222 71.444C79.3922 71.822 81.4362 73.25 83.4522 73.25C84.0822 73.25 84.7262 73.11 85.3562 72.746ZM76.8162 61.938C75.0242 61.938 74.0302 64.794 74.0302 67.342C74.0302 69.4 74.6882 71.276 76.1022 71.276C77.8802 71.276 78.8882 68.392 78.8882 65.83C78.8882 63.786 78.2442 61.938 76.8162 61.938Z" fill="white"/>
</svg>
