<svg width="70" height="40" viewBox="0 0 70 40" fill="none" xmlns="http://www.w3.org/2000/svg">
    <path d="M17.9921 4.056V19.544L21.1601 23H14.6321L17.7041 19.704L3.78413 2.968V19.544L6.95213 23H0.328125L3.49613 19.544V2.584L1.83213 0.599998H7.30413L17.7041 13.272V4.056L14.5361 0.599998H21.1601L17.9921 4.056ZM20.8096 17.56C20.8096 14.36 23.4016 11.992 26.5056 11.992C28.5216 11.992 29.1616 12.6 29.8016 13.208C29.2256 12.376 27.7216 10.616 25.2896 10.616H22.8896C24.1056 8.408 27.0816 6.84 29.9616 6.84C32.8416 6.84 35.5296 8.088 35.5296 11.224V21.048L37.2576 23H31.3696V19.096C30.3776 21.912 28.3296 23.096 26.1536 23.096C23.1456 23.096 20.8096 20.664 20.8096 17.56ZM27.0176 10.648C27.9456 11 30.3776 12.216 31.3696 16.024V9.656C31.3696 8.024 30.8576 7.224 29.8656 7.224C28.2976 7.224 27.4016 8.984 27.0176 10.648ZM24.6496 15.864C24.6496 18.392 26.5056 21.208 28.6496 21.208C30.4736 21.208 31.3056 19.352 31.3056 17.592C31.3056 15.288 29.6416 12.312 27.3056 12.312C25.6096 12.312 24.6496 14.04 24.6496 15.864ZM37.7159 17.56C37.7159 14.36 40.3079 11.992 43.4119 11.992C45.4279 11.992 46.0679 12.6 46.7079 13.208C46.1319 12.376 44.6279 10.616 42.1959 10.616H39.7959C41.0119 8.408 43.9879 6.84 46.8679 6.84C49.7479 6.84 52.4359 8.088 52.4359 11.224V21.048L54.1639 23H48.2759V19.096C47.2839 21.912 45.2359 23.096 43.0599 23.096C40.0519 23.096 37.7159 20.664 37.7159 17.56ZM43.9239 10.648C44.8519 11 47.2839 12.216 48.2759 16.024V9.656C48.2759 8.024 47.7639 7.224 46.7719 7.224C45.2039 7.224 44.3079 8.984 43.9239 10.648ZM41.5559 15.864C41.5559 18.392 43.4119 21.208 45.5559 21.208C47.3799 21.208 48.2119 19.352 48.2119 17.592C48.2119 15.288 46.5479 12.312 44.2119 12.312C42.5159 12.312 41.5559 14.04 41.5559 15.864ZM66.4014 10.712L64.3534 7H69.7934L66.6894 10.744L63.1694 19.928V22.488H61.9854C60.1614 26.392 57.9214 29.688 54.7534 29.688C52.7694 29.688 51.2654 28.44 51.2654 26.808C51.2654 25.336 52.4494 24.024 54.5934 23.544L59.8734 22.36L54.3054 8.92L52.6414 7H60.4174L58.7214 8.92L63.0094 19.64L66.4014 10.712ZM56.9294 23.288C54.7534 23.8 54.4014 24.568 54.4014 25.048C54.4014 25.816 55.1694 26.072 55.8414 26.072C57.9854 26.072 60.4174 24.408 61.7294 22.488H60.2574L56.9294 23.288ZM25.961 37H24.977V28.612H25.961V37ZM32.8686 36.232C32.9286 36.172 32.9406 36.16 32.9646 36.16C33.0006 36.16 33.0366 36.196 33.0366 36.256C33.0366 36.556 32.2206 37.036 31.8846 37.036C29.6526 37.036 29.6406 33.16 28.1406 33.16V37H27.1566V28.612H29.3166C31.0686 28.612 32.0166 29.968 32.0166 31.192C32.0166 32.224 31.3566 33.16 29.9646 33.16H28.8246C30.4086 33.832 31.3806 36.472 32.3646 36.472C32.5326 36.472 32.7006 36.4 32.8686 36.232ZM29.3166 28.768H28.4646C28.2606 28.768 28.1406 28.984 28.1406 29.284V33.004H29.5806C30.5286 33.004 31.0326 31.996 31.0326 30.964C31.0326 29.884 30.4806 28.768 29.3166 28.768ZM39.1211 37H38.1371L37.4891 34.828C37.4531 36.268 36.2651 37 35.1491 37C34.1291 37 33.1571 36.4 33.1571 35.284C33.1571 33.412 35.8811 31.168 35.8811 29.548C35.7131 29.128 35.5451 28.984 35.3651 28.984C35.2571 28.984 35.1491 29.032 35.1011 29.068C35.0651 29.092 35.0171 29.104 34.9931 29.104C34.9451 29.104 34.9331 29.08 34.9331 29.056V29.032C35.1611 28.732 35.4491 28.564 35.7491 28.564C36.2171 28.564 36.7211 28.984 37.0331 30.028L39.1211 37ZM34.0811 35.08C34.0811 36.028 34.7651 36.496 35.4971 36.496C36.3731 36.496 37.3211 35.848 37.3211 34.648C37.3211 34.372 37.2731 34.108 37.1891 33.808L36.0491 30.028C36.0371 29.98 36.0131 29.932 36.0011 29.896C35.7611 31.36 34.0811 33.1 34.0811 35.08ZM49.8768 38.068C49.9608 38.02 49.9728 38.008 49.9848 38.008C50.0328 38.008 50.0808 38.044 50.0808 38.092C50.0808 38.116 50.0688 38.14 50.0328 38.164C48.8568 38.836 47.9448 39.088 47.2128 39.088C45.1008 39.088 44.2368 37.036 42.2688 37.036H42.1248C40.1688 37.036 39.1848 34.864 39.1848 32.788C39.1848 30.676 40.2048 28.576 42.2448 28.576C44.2968 28.576 45.3168 30.676 45.3168 32.788C45.3168 34.672 44.5128 36.556 42.9048 36.952C44.7648 37.276 46.5168 38.5 48.2448 38.5C48.7848 38.5 49.3368 38.38 49.8768 38.068ZM42.5568 28.804C41.0208 28.804 40.1688 31.252 40.1688 33.436C40.1688 35.2 40.7328 36.808 41.9448 36.808C43.4688 36.808 44.3328 34.336 44.3328 32.14C44.3328 30.388 43.7808 28.804 42.5568 28.804Z" fill="#181717"/>
</svg>
