<svg width="53" height="37" viewBox="0 0 53 37" fill="none" xmlns="http://www.w3.org/2000/svg">
    <path d="M17.9453 4.056V19.544L21.1133 23H14.5853L17.6573 19.704L3.73725 2.968V19.544L6.90525 23H0.28125L3.44925 19.544V2.584L1.78525 0.599998H7.25725L17.6573 13.272V4.056L14.4893 0.599998H21.1133L17.9453 4.056ZM20.7628 17.56C20.7628 14.36 23.3548 11.992 26.4588 11.992C28.4748 11.992 29.1148 12.6 29.7548 13.208C29.1788 12.376 27.6748 10.616 25.2428 10.616H22.8428C24.0588 8.408 27.0348 6.84 29.9148 6.84C32.7948 6.84 35.4828 8.088 35.4828 11.224V21.048L37.2108 23H31.3228V19.096C30.3308 21.912 28.2828 23.096 26.1068 23.096C23.0988 23.096 20.7628 20.664 20.7628 17.56ZM26.9708 10.648C27.8988 11 30.3308 12.216 31.3228 16.024V9.656C31.3228 8.024 30.8108 7.224 29.8188 7.224C28.2508 7.224 27.3548 8.984 26.9708 10.648ZM24.6028 15.864C24.6028 18.392 26.4588 21.208 28.6028 21.208C30.4268 21.208 31.2588 19.352 31.2588 17.592C31.2588 15.288 29.5948 12.312 27.2588 12.312C25.5628 12.312 24.6028 14.04 24.6028 15.864ZM49.4483 10.712L47.4003 7H52.8403L49.7363 10.744L46.2163 19.928V22.488H45.0323C43.2083 26.392 40.9683 29.688 37.8003 29.688C35.8163 29.688 34.3122 28.44 34.3122 26.808C34.3122 25.336 35.4962 24.024 37.6403 23.544L42.9203 22.36L37.3523 8.92L35.6883 7H43.4643L41.7683 8.92L46.0563 19.64L49.4483 10.712ZM39.9763 23.288C37.8003 23.8 37.4483 24.568 37.4483 25.048C37.4483 25.816 38.2163 26.072 38.8883 26.072C41.0323 26.072 43.4643 24.408 44.7763 22.488H43.3043L39.9763 23.288ZM15.9897 29.272V36.328L16.6377 37H14.6217L15.2697 36.328V29.272L14.6217 28.6H16.6377L15.9897 29.272ZM20.564 32.176L22.568 36.388L23.12 37H21.296L21.788 36.472L19.952 32.5C19.208 32.908 18.44 33.388 18.392 34.312V36.328L19.04 37H17.024L17.672 36.328V29.272L17.024 28.6H20.24C21.344 28.6 22.172 29.356 22.172 30.364C22.172 31.276 21.5 31.66 20.564 32.176ZM20.06 32.344C20.9 31.876 21.44 31.084 21.44 30.4C21.44 29.716 21.188 28.72 19.568 28.684H18.392V33.904C18.644 33.124 19.328 32.752 20.06 32.344ZM23.2084 37L23.8564 36.328L26.1124 29.812V28.6H26.4484L29.4364 36.328L30.0844 37H28.0084L28.6564 36.328L27.8164 34.084H24.7204L23.9644 36.316L24.6244 37H23.2084ZM24.7564 34H27.7804L26.1604 29.932L24.7564 34ZM29.6622 32.776C29.6622 30.412 31.6062 28.564 33.8502 28.564C36.1542 28.564 38.0622 30.436 38.0622 32.776C38.0622 34.708 36.7662 36.28 35.0982 36.796L38.1462 36.148L38.1222 37H33.8622C31.5582 37 29.6622 35.08 29.6622 32.776ZM30.2742 31.984C30.2742 34.432 32.3862 36.652 34.5702 36.652C36.2982 36.652 37.4502 35.296 37.4502 33.58C37.4502 31.192 35.4222 28.9 33.1542 28.9C31.4622 28.9 30.2742 30.208 30.2742 31.984Z" fill="#181717"/>
</svg>
