<svg width="110" height="90" viewBox="0 0 110 90" fill="none" xmlns="http://www.w3.org/2000/svg">
<path d="M0 8C0 3.58172 3.58172 0 8 0H102C106.418 0 110 3.58172 110 8V82C110 86.4183 106.418 90 102 90H8C3.58172 90 0 86.4183 0 82V8Z" fill="#44594A"/>
<path d="M46.3066 31.82V51.18L50.2666 55.5H42.1066L45.9466 51.38L28.5466 30.46V51.18L32.5066 55.5H24.2266L28.1866 51.18V29.98L26.1066 27.5H32.9466L45.9466 43.34V31.82L41.9866 27.5H50.2666L46.3066 31.82ZM49.8284 48.7C49.8284 44.7 53.0684 41.74 56.9484 41.74C59.4684 41.74 60.2684 42.5 61.0684 43.26C60.3484 42.22 58.4684 40.02 55.4284 40.02H52.4284C53.9484 37.26 57.6684 35.3 61.2684 35.3C64.8684 35.3 68.2284 36.86 68.2284 40.78V53.06L70.3884 55.5H63.0284V50.62C61.7884 54.14 59.2284 55.62 56.5084 55.62C52.7484 55.62 49.8284 52.58 49.8284 48.7ZM57.5884 40.06C58.7484 40.5 61.7884 42.02 63.0284 46.78V38.82C63.0284 36.78 62.3884 35.78 61.1484 35.78C59.1884 35.78 58.0684 37.98 57.5884 40.06ZM54.6284 46.58C54.6284 49.74 56.9484 53.26 59.6284 53.26C61.9084 53.26 62.9484 50.94 62.9484 48.74C62.9484 45.86 60.8684 42.14 57.9484 42.14C55.8284 42.14 54.6284 44.3 54.6284 46.58ZM85.6853 40.14L83.1253 35.5H89.9253L86.0453 40.18L81.6453 51.66V54.86H80.1653C77.8853 59.74 75.0853 63.86 71.1253 63.86C68.6453 63.86 66.7653 62.3 66.7653 60.26C66.7653 58.42 68.2453 56.78 70.9253 56.18L77.5253 54.7L70.5653 37.9L68.4853 35.5H78.2053L76.0853 37.9L81.4453 51.3L85.6853 40.14ZM73.8453 55.86C71.1253 56.5 70.6853 57.46 70.6853 58.06C70.6853 59.02 71.6453 59.34 72.4853 59.34C75.1653 59.34 78.2053 57.26 79.8453 54.86H78.0053L73.8453 55.86ZM44.738 63.484V71.716L45.494 72.5H43.142L43.898 71.716V63.484L43.142 62.7H45.494L44.738 63.484ZM50.0747 66.872L52.4127 71.786L53.0567 72.5H50.9287L51.5027 71.884L49.3607 67.25C48.4927 67.726 47.5967 68.286 47.5407 69.364V71.716L48.2967 72.5H45.9447L46.7007 71.716V63.484L45.9447 62.7H49.6967C50.9847 62.7 51.9507 63.582 51.9507 64.758C51.9507 65.822 51.1667 66.27 50.0747 66.872ZM49.4867 67.068C50.4667 66.522 51.0967 65.598 51.0967 64.8C51.0967 64.002 50.8027 62.84 48.9127 62.798H47.5407V68.888C47.8347 67.978 48.6327 67.544 49.4867 67.068ZM53.1598 72.5L53.9158 71.716L56.5478 64.114V62.7H56.9398L60.4258 71.716L61.1818 72.5H58.7598L59.5158 71.716L58.5358 69.098H54.9238L54.0418 71.702L54.8118 72.5H53.1598ZM54.9658 69H58.4938L56.6038 64.254L54.9658 69ZM60.6892 67.572C60.6892 64.814 62.9572 62.658 65.5752 62.658C68.2632 62.658 70.4892 64.842 70.4892 67.572C70.4892 69.826 68.9772 71.66 67.0312 72.262L70.5872 71.506L70.5592 72.5H65.5892C62.9012 72.5 60.6892 70.26 60.6892 67.572ZM61.4032 66.648C61.4032 69.504 63.8672 72.094 66.4152 72.094C68.4312 72.094 69.7752 70.512 69.7752 68.51C69.7752 65.724 67.4092 63.05 64.7632 63.05C62.7892 63.05 61.4032 64.576 61.4032 66.648Z" fill="white"/>
</svg>
