<svg width="46" height="46" viewBox="0 0 46 46" fill="none" xmlns="http://www.w3.org/2000/svg">
    <path d="M21.0413 2.48763C21.4805 0.360124 24.5195 0.360135 24.9587 2.48765L27.8676 16.5781C28.029 17.36 28.64 17.971 29.4219 18.1324L43.5124 21.0413C45.6399 21.4805 45.6399 24.5195 43.5124 24.9587L29.4219 27.8676C28.64 28.029 28.029 28.64 27.8676 29.4219L24.9587 43.5124C24.5195 45.6399 21.4805 45.6399 21.0413 43.5124L18.1324 29.4219C17.971 28.64 17.36 28.029 16.5781 27.8676L2.48763 24.9587C0.360124 24.5195 0.360135 21.4805 2.48765 21.0413L16.5781 18.1324C17.36 17.971 17.971 17.36 18.1324 16.5781L21.0413 2.48763Z" fill="#3B5345"/>
</svg>
