<svg width="30" height="30" viewBox="0 0 30 30" fill="none" xmlns="http://www.w3.org/2000/svg">
    <g filter="url(#filter0_b_733_2359)">
        <rect width="30" height="30" rx="15" fill="url(#paint0_linear_733_2359)"/>
        <path d="M10.5 7C8.0151 7 6 8.98817 6 11.4411C6 13.4212 6.7875 18.1206 14.5392 22.8712C14.6781 22.9555 14.8375 23 15 23C15.1625 23 15.3219 22.9555 15.4608 22.8712C23.2125 18.1206 24 13.4212 24 11.4411C24 8.98817 21.9849 7 19.5 7C17.0151 7 15 9.69156 15 9.69156C15 9.69156 12.9849 7 10.5 7Z" stroke="#C91C1C" stroke-width="1.25" stroke-linecap="round" stroke-linejoin="round"/>
    </g>
    <defs>
        <filter id="filter0_b_733_2359" x="-41" y="-41" width="112" height="112" filterUnits="userSpaceOnUse" color-interpolation-filters="sRGB">
            <feFlood flood-opacity="0" result="BackgroundImageFix"/>
            <feGaussianBlur in="BackgroundImageFix" stdDeviation="20.5"/>
            <feComposite in2="SourceAlpha" operator="in" result="effect1_backgroundBlur_733_2359"/>
            <feBlend mode="normal" in="SourceGraphic" in2="effect1_backgroundBlur_733_2359" result="shape"/>
        </filter>
        <linearGradient id="paint0_linear_733_2359" x1="15" y1="0" x2="15" y2="30" gradientUnits="userSpaceOnUse">
            <stop stop-color="white" stop-opacity="0.8"/>
            <stop offset="1" stop-color="#F5F5F5" stop-opacity="0.8"/>
        </linearGradient>
    </defs>
</svg>
