<svg width="120" height="38" viewBox="0 0 120 38" fill="none" xmlns="http://www.w3.org/2000/svg">
    <path d="M119.5 19C119.5 21.3932 117.968 23.7624 114.985 25.9954C112.012 28.2217 107.677 30.2479 102.275 31.9584C91.4786 35.3774 76.5318 37.5 60 37.5C43.4682 37.5 28.5214 35.3774 17.7245 31.9584C12.3232 30.2479 7.98843 28.2217 5.01476 25.9954C2.03224 23.7624 0.5 21.3932 0.5 19C0.5 16.6068 2.03224 14.2376 5.01476 12.0046C7.98843 9.77826 12.3232 7.75207 17.7245 6.04164C28.5214 2.62262 43.4682 0.5 60 0.5C76.5318 0.5 91.4786 2.62262 102.275 6.04164C107.677 7.75207 112.012 9.77826 114.985 12.0046C117.968 14.2376 119.5 16.6068 119.5 19Z" stroke="#F0F0F0"/>
</svg>
