<svg width="26" height="26" viewBox="0 0 26 26" fill="none" xmlns="http://www.w3.org/2000/svg">
    <g clip-path="url(#clip0_448_1101)">
        <path d="M8.66675 7.58333C8.66675 8.7326 9.12329 9.8348 9.93595 10.6475C10.7486 11.4601 11.8508 11.9167 13.0001 11.9167C14.1494 11.9167 15.2516 11.4601 16.0642 10.6475C16.8769 9.8348 17.3334 8.7326 17.3334 7.58333C17.3334 6.43406 16.8769 5.33186 16.0642 4.5192C15.2516 3.70655 14.1494 3.25 13.0001 3.25C11.8508 3.25 10.7486 3.70655 9.93595 4.5192C9.12329 5.33186 8.66675 6.43406 8.66675 7.58333Z" stroke="#3B5345" stroke-width="1.25" stroke-linecap="round" stroke-linejoin="round"/>
        <path d="M6.5 22.75V20.5833C6.5 19.4341 6.95655 18.3319 7.7692 17.5192C8.58186 16.7065 9.68406 16.25 10.8333 16.25H15.1667C16.3159 16.25 17.4181 16.7065 18.2308 17.5192C19.0435 18.3319 19.5 19.4341 19.5 20.5833V22.75" stroke="#3B5345" stroke-width="1.25" stroke-linecap="round" stroke-linejoin="round"/>
    </g>
    <defs>
        <clipPath id="clip0_448_1101">
            <rect width="26" height="26" fill="white"/>
        </clipPath>
    </defs>
</svg>
