<svg width="26" height="26" viewBox="0 0 26 26" fill="none" xmlns="http://www.w3.org/2000/svg">
    <g clip-path="url(#clip0_382_1532)">
        <path d="M19.8944 5.02223C21.6844 6.81204 22.7082 9.22786 22.7492 11.7588C22.7903 14.2898 21.8454 16.7376 20.1143 18.5845L19.8944 18.812L15.2978 23.4075C14.7146 23.9903 13.9316 24.3297 13.1075 24.3569C12.2834 24.384 11.4797 24.0969 10.8594 23.5537L10.7034 23.4075L6.10573 18.8109C4.27724 16.9824 3.25 14.5024 3.25 11.9166C3.25 9.33069 4.27724 6.85072 6.10573 5.02223C7.93422 3.19374 10.4142 2.1665 13.0001 2.1665C15.5859 2.1665 18.0659 3.19374 19.8944 5.02223ZM13.0001 8.66656C12.5733 8.66656 12.1506 8.75063 11.7563 8.91396C11.362 9.07728 11.0038 9.31668 10.702 9.61847C10.4002 9.92026 10.1608 10.2785 9.99745 10.6728C9.83412 11.0672 9.75006 11.4898 9.75006 11.9166C9.75006 12.3434 9.83412 12.766 9.99745 13.1603C10.1608 13.5546 10.4002 13.9129 10.702 14.2147C11.0038 14.5165 11.362 14.7558 11.7563 14.9192C12.1506 15.0825 12.5733 15.1666 13.0001 15.1666C13.862 15.1666 14.6887 14.8242 15.2982 14.2147C15.9076 13.6052 16.2501 12.7785 16.2501 11.9166C16.2501 11.0546 15.9076 10.228 15.2982 9.61847C14.6887 9.00897 13.862 8.66656 13.0001 8.66656Z" fill="#3B5345"/>
    </g>
    <defs>
        <clipPath id="clip0_382_1532">
            <rect width="26" height="26" fill="white"/>
        </clipPath>
    </defs>
</svg>
