<svg width="26" height="26" viewBox="0 0 26 26" fill="none" xmlns="http://www.w3.org/2000/svg">
    <g clip-path="url(#clip0_382_1539)">
        <path d="M3.25 8.6665C3.25 7.80455 3.59241 6.9779 4.2019 6.36841C4.8114 5.75891 5.63805 5.4165 6.5 5.4165H19.5C20.362 5.4165 21.1886 5.75891 21.7981 6.36841C22.4076 6.9779 22.75 7.80455 22.75 8.6665V17.3332C22.75 18.1951 22.4076 19.0218 21.7981 19.6313C21.1886 20.2408 20.362 20.5832 19.5 20.5832H6.5C5.63805 20.5832 4.8114 20.2408 4.2019 19.6313C3.59241 19.0218 3.25 18.1951 3.25 17.3332V8.6665Z" stroke="#3B5345" stroke-width="1.25" stroke-linecap="round" stroke-linejoin="round"/>
        <path d="M7.58325 17.3335L10.8333 14.0835L14.0833 17.3335" stroke="#3B5345" stroke-width="1.25" stroke-linecap="round" stroke-linejoin="round"/>
        <path d="M8.66667 14.0833C7.81192 14.0833 6.5 13.3553 6.5 12.4583C6.5 11.5613 7.27025 10.8333 8.125 10.8333C9.347 10.8116 10.3751 12.1008 10.8333 14.0833C11.2916 12.1008 12.3197 10.8116 13.5417 10.8333C14.3964 10.8333 15.1667 11.5613 15.1667 12.4583C15.1667 13.3553 13.8547 14.0833 13 14.0833H8.66667Z" stroke="#3B5345" stroke-width="1.25" stroke-linecap="round" stroke-linejoin="round"/>
    </g>
    <defs>
        <clipPath id="clip0_382_1539">
            <rect width="26" height="26" fill="white"/>
        </clipPath>
    </defs>
</svg>
