<svg width="26" height="26" viewBox="0 0 26 26" fill="none" xmlns="http://www.w3.org/2000/svg">
    <g clip-path="url(#clip0_382_1548)">
        <path d="M10.8333 8.66683V6.50016C10.8333 5.92553 11.0615 5.37443 11.4679 4.9681C11.8742 4.56177 12.4253 4.3335 12.9999 4.3335H20.5833C21.1579 4.3335 21.709 4.56177 22.1153 4.9681C22.5216 5.37443 22.7499 5.92553 22.7499 6.50016V19.5002C22.7499 20.0748 22.5216 20.6259 22.1153 21.0322C21.709 21.4386 21.1579 21.6668 20.5833 21.6668H12.9999C12.4253 21.6668 11.8742 21.4386 11.4679 21.0322C11.0615 20.6259 10.8333 20.0748 10.8333 19.5002V17.3335" stroke="#3B5345" stroke-width="1.25" stroke-linecap="round" stroke-linejoin="round"/>
        <path d="M16.25 13H3.25L6.5 9.75" stroke="#3B5345" stroke-width="1.25" stroke-linecap="round" stroke-linejoin="round"/>
        <path d="M6.5 16.25L3.25 13" stroke="#3B5345" stroke-width="1.25" stroke-linecap="round" stroke-linejoin="round"/>
    </g>
    <defs>
        <clipPath id="clip0_382_1548">
            <rect width="26" height="26" fill="white"/>
        </clipPath>
    </defs>
</svg>
