<svg width="26" height="26" viewBox="0 0 26 26" fill="none" xmlns="http://www.w3.org/2000/svg">
    <g clip-path="url(#clip0_382_1522)">
        <path d="M5.41675 18.4167C5.41675 18.9913 5.64502 19.5424 6.05135 19.9487C6.45768 20.3551 7.00878 20.5833 7.58341 20.5833C8.15805 20.5833 8.70915 20.3551 9.11548 19.9487C9.52181 19.5424 9.75008 18.9913 9.75008 18.4167C9.75008 17.842 9.52181 17.2909 9.11548 16.8846C8.70915 16.4783 8.15805 16.25 7.58341 16.25C7.00878 16.25 6.45768 16.4783 6.05135 16.8846C5.64502 17.2909 5.41675 17.842 5.41675 18.4167Z" stroke="#3B5345" stroke-width="1.25" stroke-linecap="round" stroke-linejoin="round"/>
        <path d="M16.25 18.4167C16.25 18.9913 16.4783 19.5424 16.8846 19.9487C17.2909 20.3551 17.842 20.5833 18.4167 20.5833C18.9913 20.5833 19.5424 20.3551 19.9487 19.9487C20.3551 19.5424 20.5833 18.9913 20.5833 18.4167C20.5833 17.842 20.3551 17.2909 19.9487 16.8846C19.5424 16.4783 18.9913 16.25 18.4167 16.25C17.842 16.25 17.2909 16.4783 16.8846 16.8846C16.4783 17.2909 16.25 17.842 16.25 18.4167Z" stroke="#3B5345" stroke-width="1.25" stroke-linecap="round" stroke-linejoin="round"/>
        <path d="M5.41675 18.4165H3.25008V14.0832M2.16675 5.4165H14.0834V18.4165M9.75008 18.4165H16.2501M20.5834 18.4165H22.7501V11.9165M22.7501 11.9165H14.0834M22.7501 11.9165L19.5001 6.49984H14.0834" stroke="#3B5345" stroke-width="1.25" stroke-linecap="round" stroke-linejoin="round"/>
        <path d="M3.25 9.75H7.58333" stroke="#3B5345" stroke-width="1.25" stroke-linecap="round" stroke-linejoin="round"/>
    </g>
    <defs>
        <clipPath id="clip0_382_1522">
            <rect width="26" height="26" fill="white"/>
        </clipPath>
    </defs>
</svg>
